<?xml version="1.0" encoding="utf-8"?>
<!-- Svg Vector Icons : http://www.onlinewebfonts.com/icon -->
<!DOCTYPE svg PUBLIC "-//W3C//DTD SVG 1.1//EN" "http://www.w3.org/Graphics/SVG/1.1/DTD/svg11.dtd">
<svg version="1.1" xmlns="http://www.w3.org/2000/svg" xmlns:xlink="http://www.w3.org/1999/xlink" x="0px" y="0px" viewBox="0 0 1000 1000" enable-background="new 0 0 1000 1000" xml:space="preserve">
<metadata> Svg Vector Icons : http://www.onlinewebfonts.com/icon </metadata>
<g><path d="M848.1,588.3l137.8-308.2l-0.1,0c2.6-5.8,4.1-12.2,4.1-18.9c0-25.5-20.6-46.2-45.9-46.2H263.9L237.1,138l-0.2,0.1c-6.3-18-23.1-31-43.2-31H55.9c-25.4,0-45.9,20.7-45.9,46.2c0,25.5,20.6,46.2,45.9,46.2h105.2L338,708h-83c-50.7,0-91.9,41.4-91.9,92.5c0,51.1,41.1,92.5,91.9,92.5c50.7,0,91.9-41.4,91.9-92.5h428.7c0,51.1,41.2,92.5,91.9,92.5c50.7,0,91.9-41.4,91.9-92.5c0-51.1-41.1-92.5-91.9-92.5H435.3l-22.9-65.9l396.9-26.6C826.6,614.3,841.3,603.5,848.1,588.3z M380.9,551.5L296,307.4h577l-97.3,217.7L380.9,551.5z"/></g>
</svg>